# xmcd
#
# Track frame offsets: 
#        150
#        14765
#        26385
#        38757
#        50190
#        61802
#        74055
#        87385
#        104142
#        116902
#        132352
#        140232
#        150097
#        164237
#        177575
#        186690
#        201027
#        213662
#        222870
#        233015
#        248010
#        254780
#        271410
#        280657
#        304127
#
# Disc length: 4227 seconds
#
# Revision: 19
# Processed by: cddbd v1.5.2PL0 Copyright (c) Steve Scherf et al.
# Submitted via: ExactAudioCopyFreeDBPlugin 1.0
#
DISCID=96108119
DTITLE=Various Artist - 50 Country Golden Hits Vol. 1 [CD2]
DYEAR=1997
DGENRE=Country
TTITLE0=Bellamy Brothers - Dancing Cowboys
TTITLE1=Frankie Lane - Mule Train
TTITLE2=Lynn Anderson - Stand By Your Man
TTITLE3=Johnny Cash - Big River
TTITLE4=Kenny Rodgers - Me and Bobby McGee
TTITLE5=Frankie Lane - High Noon (Do Not Forsake Me)
TTITLE6=Bellamy Brothers - Do You Love As Good As You Look
TTITLE7=Carmen and Thompson - Indian Queens
TTITLE8=Lynn Anderson - Top Of The World
TTITLE9=Kenny Rodgers - For The Good Times
TTITLE10=Johnny Cash - Hey Good Looking
TTITLE11=Willie Nelson - Broken Promises
TTITLE12=B.J. Thomas - I'd Rather Be Lonely
TTITLE13=Carl Belew - Welcome Back To My World
TTITLE14=Dorsey Burnette - Together Again
TTITLE15=Waylon Jennings - Dream Baby (Instrumental)
TTITLE16=Oak Ridge Boys - You'll Never Walk Alone
TTITLE17=Marilyn Monroe - One Silver Dollar
TTITLE18=Don Williams - Take My Hand For A While
TTITLE19=Willie Nelson - Face Of A Fighter
TTITLE20=Boxcar Willie - I Saw The Light
TTITLE21=Ace Cannon - Me and Bobby McGee
TTITLE22=Johnny Paycheck - Mr. Lovemaker
TTITLE23=Phil Carmen - Call Me The Breeze (Live)
TTITLE24=Mickey Gilley - C.C. Rider
EXTD=YEAR: 1997
EXTT0=
EXTT1=
EXTT2=
EXTT3=
EXTT4=
EXTT5=
EXTT6=
EXTT7=
EXTT8=
EXTT9=
EXTT10=
EXTT11=
EXTT12=
EXTT13=
EXTT14=
EXTT15=
EXTT16=
EXTT17=
EXTT18=
EXTT19=
EXTT20=
EXTT21=
EXTT22=
EXTT23=
EXTT24=
PLAYORDER=
